#Comment line ignore any data following # character 
#Hierarchical Translation and Rotation (.htr) file 
[Header]	
#Header keywords are followed by a single value 
FileType HTR		#Single word string
DataType HTRS		#Translation followed by rotation and scale data
FileVersion 1		#integer
NumSegments 23		#integer
NumFrames 4		#integer
DataFrameRate 30		#integer, data frame rate in this file
EulerRotationOrder ZYX
CalibrationUnits mm
RotationUnits Degrees
GlobalAxisofGravity Y
BoneLengthAxis Y
ScaleFactor 1.00
[SegmentNames&Hierarchy]
#CHILD	PARENT
MASTER GLOBAL
weapon MASTER
arm_lock_bottom_part1 weapon
arm_lock_bottom_part2 weapon
arm_lock_bottom_part3 weapon
arm_lock_bottom_part4 weapon
arm_lock_top_part1 weapon
arm_lock_top_part2 weapon
arm_lock_top_part3 weapon
front_lower_left_part1 weapon
front_lower_right_part1 weapon
front_top_left_part weapon
front_top_right_part1 weapon
scope_part1 weapon
scope_part2 weapon
front_lower_left_part2 front_lower_left_part1
front_lower_left_part3 front_lower_left_part2
front_lower_right_part2 front_lower_right_part1
front_lower_right_part3 front_lower_right_part2
front_top_left_part2 front_top_left_part
front_top_left_part3 front_top_left_part2
front_top_right_part2 front_top_right_part1
front_top_right_part3 front_top_right_part2
[BasePosition]
#SegmentName Tx, Ty, Tz, Rx, Ry, Rz, BoneLength
MASTER 0.000000 0.000000 0.000000 -90.000000 0.000000 0.000000 10.000000 
weapon 0.000000 0.000000 0.000000 0.000000 0.000000 0.000000 10.000000 
arm_lock_bottom_part1 0.000000 0.000000 0.000000 0.000000 0.000000 0.000000 10.000000 
arm_lock_bottom_part2 0.000000 0.000000 0.000000 0.000000 0.000000 0.000000 10.000000 
arm_lock_bottom_part3 0.000000 0.000000 0.000000 0.000000 0.000000 0.000000 10.000000 
arm_lock_bottom_part4 0.000000 0.000000 0.000000 0.000000 0.000000 0.000000 10.000000 
arm_lock_top_part1 0.000000 0.000000 0.000000 0.000000 0.000000 0.000000 10.000000 
arm_lock_top_part2 0.000000 0.000000 0.000000 0.000000 0.000000 0.000000 10.000000 
arm_lock_top_part3 0.000000 0.000000 0.000000 0.000000 0.000000 0.000000 10.000000 
front_lower_left_part1 0.000000 0.000000 0.000000 0.000000 0.000000 0.000000 10.000000 
front_lower_right_part1 0.000000 0.000000 0.000000 0.000000 0.000000 0.000000 10.000000 
front_top_left_part 0.000000 0.000000 0.000000 0.000000 0.000000 0.000000 10.000000 
front_top_right_part1 0.000000 0.000000 0.000000 0.000000 0.000000 0.000000 10.000000 
scope_part1 0.000000 0.000000 0.000000 0.000000 0.000000 0.000000 10.000000 
scope_part2 0.000000 0.000000 0.000000 0.000000 0.000000 0.000000 10.000000 
front_lower_left_part2 0.000000 0.000000 0.000000 0.000000 0.000000 0.000000 10.000000 
front_lower_left_part3 0.000000 0.000000 0.000000 0.000000 0.000000 0.000000 10.000000 
front_lower_right_part2 0.000000 0.000000 0.000000 0.000000 0.000000 0.000000 10.000000 
front_lower_right_part3 0.000000 0.000000 0.000000 0.000000 0.000000 0.000000 10.000000 
front_top_left_part2 0.000000 0.000000 0.000000 0.000000 0.000000 0.000000 10.000000 
front_top_left_part3 0.000000 0.000000 0.000000 0.000000 0.000000 0.000000 10.000000 
front_top_right_part2 0.000000 0.000000 0.000000 0.000000 0.000000 0.000000 10.000000 
front_top_right_part3 0.000000 0.000000 0.000000 0.000000 0.000000 0.000000 10.000000 
#Beginning of Data. Separated by tabs
#Fr	Tx	Ty	Tz	Rx	Ry	Rz	SF
[MASTER]
1 0.000000 -0.000019 0.000002 0.002458 -0.000000 0.000000 0.000019
2 0.000000 -0.000019 0.000002 0.002458 -0.000000 0.000000 0.000019
3 0.000000 -0.000019 0.000002 0.002458 -0.000000 0.000000 0.000019
4 0.000000 -0.000019 0.000002 0.002458 -0.000000 0.000000 0.000019
[weapon]
1 10.182457 -168.977844 -13.084106 -0.002473 -0.000000 -0.000020 169.789246
2 10.182457 -168.977844 -13.084106 -0.002473 -0.000000 -0.000020 169.789246
3 10.182457 -168.977844 -13.084106 -0.002473 -0.000000 -0.000020 169.789246
4 10.182476 -168.977890 -13.084106 -0.002473 -0.000000 -0.000020 169.789291
[arm_lock_bottom_part1]
1 -48.820000 98.566208 -83.498993 179.999985 0.000004 9.388626 138.096970
2 -48.820000 98.566208 -83.498993 179.999985 0.000004 9.388626 138.096970
3 -48.820000 98.566208 -83.498993 179.999985 0.000004 9.388626 138.096970
4 -48.820019 98.566170 -83.498993 179.999985 0.000004 9.388626 138.096939
[arm_lock_bottom_part2]
1 -49.022766 58.782005 -78.526535 -179.999985 -0.000001 6.576765 109.658440
2 -49.022766 58.782005 -78.526535 -179.999985 -0.000001 6.576765 109.658440
3 -49.022766 58.782005 -78.526535 -179.999985 -0.000001 6.576765 109.658440
4 -49.022751 58.781967 -78.526535 -179.999985 -0.000001 6.576765 109.658409
[arm_lock_bottom_part3]
1 -51.266422 -16.798210 -66.920395 -179.999985 -0.000001 4.326176 85.957924
2 -51.266438 -16.798210 -66.920395 -179.999985 -0.000001 4.326176 85.957939
3 -51.266422 -16.798210 -66.920395 -179.999985 -0.000001 4.326176 85.957924
4 -51.266422 -16.798248 -66.920395 -179.999985 -0.000001 4.326176 85.957932
[arm_lock_bottom_part4]
1 -40.078102 -93.503113 -59.330063 -179.999985 -0.000000 1.322129 117.767326
2 -40.078102 -93.503113 -59.330063 -179.999985 -0.000000 1.322129 117.767326
3 -40.078102 -93.503113 -59.330063 -179.999985 -0.000000 1.322129 117.767326
4 -40.078083 -93.503136 -59.330063 -179.999985 -0.000000 1.322129 117.767326
[arm_lock_top_part1]
1 -47.532558 61.554489 78.379364 0.000000 -0.000000 -9.999999 110.415680
2 -47.532558 61.554489 78.379364 0.000000 -0.000000 -9.999999 110.415680
3 -47.532558 61.554489 78.379364 0.000000 -0.000000 -9.999999 110.415680
4 -47.532558 61.554451 78.379364 0.000000 -0.000000 -9.999999 110.415672
[arm_lock_top_part2]
1 -45.622673 13.709908 63.393555 0.000000 -0.000000 -7.722126 79.297745
2 -45.622673 13.709908 63.393555 0.000000 -0.000000 -7.722126 79.297745
3 -45.622673 13.709908 63.393555 0.000000 -0.000000 -7.722126 79.297745
4 -45.622673 13.709869 63.393555 0.000000 -0.000000 -7.722126 79.297745
[arm_lock_top_part3]
1 -43.788544 -73.747208 72.061615 0.000000 0.000000 -4.533067 112.022163
2 -43.788544 -73.747231 72.061615 0.000000 0.000000 -4.533067 112.022171
3 -43.788544 -73.747208 72.061615 0.000000 0.000000 -4.533067 112.022163
4 -43.788525 -73.747231 72.061615 0.000000 0.000000 -4.533067 112.022163
[front_lower_left_part1]
1 -46.798553 475.070984 -43.538895 0.000000 0.000003 -0.000000 479.351837
2 -46.798534 475.070892 -43.538895 0.000000 0.000003 -0.000000 479.351715
3 -46.798553 475.070984 -43.538895 0.000000 0.000003 -0.000000 479.351837
4 -46.798553 475.070862 -43.538895 0.000000 0.000003 -0.000000 479.351715
[front_lower_right_part1]
1 26.433468 475.070984 -43.538742 0.000000 -0.000000 -0.000000 477.793671
2 26.433447 475.070984 -43.538895 0.000000 -0.000000 -0.000000 477.793671
3 26.433468 475.070984 -43.538742 0.000000 -0.000000 -0.000000 477.793671
4 26.433447 475.070862 -43.538895 0.000000 -0.000000 -0.000000 477.793579
[front_top_left_part]
1 -47.897224 494.788910 7.030945 -0.000000 0.000003 -0.000001 497.151520
2 -47.897205 494.788910 7.030945 -0.000000 0.000003 -0.000001 497.151520
3 -47.897224 494.788910 7.030945 -0.000000 0.000003 -0.000001 497.151520
4 -47.897224 494.788879 7.030945 -0.000000 0.000003 -0.000001 497.151489
[front_top_right_part1]
1 27.532139 494.788910 7.031097 0.000000 -0.000000 -0.000000 495.604218
2 27.532156 494.788910 7.031097 0.000000 -0.000000 -0.000000 495.604218
3 27.532139 494.788910 7.031097 0.000000 -0.000000 -0.000000 495.604218
4 27.532120 494.788727 7.031097 0.000000 -0.000000 -0.000000 495.604004
[scope_part1]
1 -10.754299 87.338936 156.453094 -4.904507 -0.000001 -0.000020 179.502960
2 -10.754318 87.338936 156.453094 -4.904432 -0.003393 0.000275 179.502960
3 -10.754299 87.338936 156.453094 -4.904507 -0.013329 0.001166 179.502960
4 -10.754318 87.338905 156.453094 -4.904432 -0.029435 0.002628 179.502960
[scope_part2]
1 -10.754299 82.597351 156.859894 -4.904432 -0.000001 -0.000020 177.603500
2 -10.754280 82.597351 156.859894 -4.904432 0.003165 -0.000156 177.603500
3 -10.754299 82.597351 156.859894 -4.904431 0.012412 -0.001017 177.603500
4 -10.754280 82.597351 156.859894 -4.904432 0.027358 -0.002279 177.603500
[front_lower_left_part2]
1 -55.193516 141.618484 32.268444 0.000000 0.000000 -0.000020 155.381378
2 -55.193516 141.618484 32.268291 0.000000 -0.000000 0.003224 155.381348
3 -55.193516 141.618484 32.268444 0.000000 -0.000000 0.012650 155.381378
4 -55.193516 141.618484 32.268444 0.000000 -0.000000 0.028263 155.381378
[front_lower_left_part3]
1 -10.943755 108.509369 -11.124725 33.350468 -16.024452 -13.463913 109.625763
2 -10.943775 108.509445 -11.124877 33.351467 -16.022205 -13.467463 109.625854
3 -10.943755 108.509521 -11.124725 33.354382 -16.015495 -13.478106 109.625916
4 -10.943755 108.509369 -11.125030 33.359173 -16.004519 -13.495403 109.625801
[front_lower_right_part2]
1 55.193707 141.618347 32.268291 0.000000 0.000000 -0.000020 155.381271
2 55.193707 141.618347 32.268291 0.000000 0.000000 -0.001564 155.381271
3 55.193707 141.618347 32.268291 0.000000 0.000000 -0.006052 155.381271
4 55.193707 141.618408 32.268291 0.000000 0.000000 -0.013469 155.381348
[front_lower_right_part3]
1 10.943870 108.509369 -11.124877 33.350536 16.024376 13.463858 109.625786
2 10.943909 108.509521 -11.124725 33.351101 16.023067 13.465989 109.625931
3 10.943870 108.509590 -11.124725 33.352783 16.019220 13.472093 109.625999
4 10.943831 108.509369 -11.124725 33.355556 16.012894 13.482017 109.625771
[front_top_left_part2]
1 -42.569122 137.487869 54.839325 0.000000 -0.000003 0.000001 154.020767
2 -42.563114 137.487869 54.839172 0.000000 -0.000003 0.000001 154.019043
3 -42.545452 137.487946 54.838100 0.000000 -0.000003 0.000001 154.013855
4 -42.516647 137.488022 54.836426 0.000000 -0.000003 0.000001 154.005371
[front_top_left_part3]
1 -28.216457 149.656982 49.959717 -25.847345 -3.900758 -66.530426 160.278992
2 -28.216476 149.656982 49.959717 -25.847607 -3.898950 -66.526642 160.278992
3 -28.216457 149.656982 49.959717 -25.848333 -3.893686 -66.515808 160.278992
4 -28.216457 149.656906 49.959717 -25.849533 -3.885138 -66.498093 160.278915
[front_top_right_part2]
1 42.569122 137.488022 54.839325 0.000000 0.000000 -0.000020 154.020889
2 42.562675 137.488022 54.839630 0.000000 0.000000 -0.000020 154.019226
3 42.543793 137.488022 54.840698 0.000000 0.000000 -0.000020 154.014389
4 42.513046 137.488098 54.842377 0.000000 0.000000 -0.000020 154.006561
[front_top_right_part3]
1 28.216476 149.657135 49.959564 -25.847412 3.900794 66.530373 160.279083
2 28.216553 149.657135 49.959564 -25.847586 3.899688 66.528137 160.279099
3 28.216515 149.657135 49.959564 -25.848013 3.896583 66.521805 160.279083
4 28.216553 149.657059 49.959564 -25.848692 3.891616 66.511459 160.279022
